# File created by Blade
# Date/Time:  Tue Apr 07 20:45:29 2015
#---------------------------------------------------------
:version 1.10
:name HOM
:units
  mass 1.0
  length 1.000000
  angle deg
:documentation
     Acclaim Skeleton File
:root
   axis xyz
   order TX TY TZ RX RY RZ
   position 0.000000 0.000000 0.000000
   orientation 0 0 0
:bonedata
   begin
      id 1
      name Spine_dum
      direction 0.000000 1.000000 0.000000
      length 4.885285
      axis 0.0 0.0 0.0 xyz
   end
   begin
      id 2
      name LeftUpLeg_dum
      direction 1.000000 0.000000 0.000000
      length 2.672193
      axis 0.0 0.0 0.0 xyz
   end
   begin
      id 3
      name RightUpLeg_dum
      direction -1.000000 0.000000 0.000000
      length 2.672193
      axis 0.0 0.0 0.0 xyz
   end
   begin
      id 4
      name Spine
      direction 0.000000 1.000000 0.000000
      length 0.000000
      axis 0.0 0.0 0.0 xyz
      dof rx ry rz
   end
   begin
      id 5
      name Spine_dum1
      direction 0.000000 1.000000 0.000000
      length 16.494159
      axis 0.0 0.0 0.0 xyz
   end
   begin
      id 6
      name Spine_dum2
      direction 0.000000 1.000000 0.000000
      length 10.663448
      axis 0.0 0.0 0.0 xyz
   end
   begin
      id 7
      name Spine_dum3
      direction 0.000000 1.000000 0.000000
      length 10.663448
      axis 0.0 0.0 0.0 xyz
   end
   begin
      id 8
      name Head
      direction 0.000000 1.000000 0.000000
      length 4.527550
      axis 0.0 0.0 0.0 xyz
      dof rx ry rz
   end
   begin
      id 9
      name LeftShoulder
      direction 1.000000 0.000000 0.000000
      length 7.531907
      axis 0.0 0.0 -90.0 xyz
      dof rx ry rz
   end
   begin
      id 10
      name LeftArm
      direction 1.000000 0.000000 0.000000
      length 10.229199
      axis 0.0 0.0 -90.0 xyz
      dof rx ry rz
   end
   begin
      id 11
      name LeftForeArm
      direction 1.000000 0.000000 0.000000
      length 8.673495
      axis 0.0 0.0 -90.0 xyz
      dof ry rz rx
   end
   begin
      id 12
      name LeftHand
      direction 0.000000 0.000000 0.000000
      length 0.000000
      axis 0.0 0.0 -90.0 xyz
      dof rx ry rz
   end
   begin
      id 13
      name LeftHand_dum1
      direction 0.000000 0.000000 0.000000
      length 0.000000
      axis 0.0 0.0 -90.0 xyz
   end
   begin
      id 14
      name LeftHand_dum2
      direction 1.000000 0.000000 0.000000
      length 3.937000
      axis 0.0 0.0 -90.0 xyz
   end
   begin
      id 15
      name LeftHandThumb1
      direction 0.000000 0.000000 1.000000
      length 3.937000
      axis 0.0 0.0 -90.0 xyz
      dof rx rz ry
   end
   begin
      id 16
      name RightShoulder
      direction -1.000000 0.000000 0.000000
      length 7.531907
      axis 0.0 0.0 90.0 xyz
      dof rx ry rz
   end
   begin
      id 17
      name RightArm
      direction -1.000000 0.000000 0.000000
      length 10.229199
      axis 0.0 0.0 90.0 xyz
      dof rx ry rz
   end
   begin
      id 18
      name RightForeArm
      direction -1.000000 0.000000 0.000000
      length 8.673495
      axis 0.0 0.0 90.0 xyz
      dof ry rz rx
   end
   begin
      id 19
      name RightHand
      direction 0.000000 0.000000 0.000000
      length 0.000000
      axis 0.0 0.0 90.0 xyz
      dof rx ry rz
   end
   begin
      id 20
      name RightHand_dum1
      direction 0.000000 0.000000 0.000000
      length 0.000000
      axis 0.0 0.0 90.0 xyz
   end
   begin
      id 21
      name RightHand_dum2
      direction -1.000000 0.000000 0.000000
      length 3.937000
      axis 0.0 0.0 90.0 xyz
   end
   begin
      id 22
      name RightHandThumb1
      direction 0.000000 0.000000 1.000000
      length 3.937000
      axis 0.0 0.0 90.0 xyz
      dof rx rz ry
   end
   begin
      id 23
      name LeftUpLeg
      direction 0.000000 -1.000000 0.000000
      length 16.263388
      axis 0.0 0.0 0.0 xyz
      dof rx ry rz
   end
   begin
      id 24
      name LeftLeg
      direction 0.000000 -1.000000 0.000000
      length 14.328163
      axis 0.0 0.0 0.0 xyz
      dof rx ry rz
   end
   begin
      id 25
      name LeftFoot
      direction 0.000000 -0.258819 0.965926
      length 5.031290
      axis 15.0 0.0 0.0 xyz
      dof rx ry rz
   end
   begin
      id 26
      name LeftToeBase
      direction 0.000000 0.000000 1.000000
      length 2.952750
      axis 0.0 0.0 0.0 xyz
      dof rx ry rz
   end
   begin
      id 27
      name RightUpLeg
      direction 0.000000 -1.000000 0.000000
      length 16.263388
      axis 0.0 0.0 0.0 xyz
      dof rx ry rz
   end
   begin
      id 28
      name RightLeg
      direction 0.000000 -1.000000 0.000000
      length 14.328163
      axis 0.0 0.0 0.0 xyz
      dof rx ry rz
   end
   begin
      id 29
      name RightFoot
      direction 0.000000 -0.258819 0.965926
      length 5.031290
      axis 15.0 0.0 0.0 xyz
      dof rx ry rz
   end
   begin
      id 30
      name RightToeBase
      direction 0.000000 0.000000 1.000000
      length 2.952750
      axis 0.0 0.0 0.0 xyz
      dof rx ry rz
   end
:hierarchy
   begin
      root Spine_dum LeftUpLeg_dum RightUpLeg_dum
      Spine_dum Spine
      LeftUpLeg_dum LeftUpLeg
      RightUpLeg_dum RightUpLeg
      Spine Spine_dum1 Spine_dum2 Spine_dum3
      Spine_dum1 Head
      Spine_dum2 LeftShoulder
      Spine_dum3 RightShoulder
      LeftShoulder LeftArm
      LeftArm LeftForeArm
      LeftForeArm LeftHand
      LeftHand LeftHand_dum1 LeftHand_dum2
      LeftHand_dum1 LeftHandThumb1
      RightShoulder RightArm
      RightArm RightForeArm
      RightForeArm RightHand
      RightHand RightHand_dum1 RightHand_dum2
      RightHand_dum1 RightHandThumb1
      LeftUpLeg LeftLeg
      LeftLeg LeftFoot
      LeftFoot LeftToeBase
      RightUpLeg RightLeg
      RightLeg RightFoot
      RightFoot RightToeBase
   end

# File created by Blade
# Date/Time:  Tue Apr 07 20:45:22 2015
# Frame Rate: 120.000 fps
#------------------------------------------------------
:FULLY-SPECIFIED
:DEGREES
134
root 2.378664 33.003507 -4.550824 8.902607 -4.352409 -4.355713
Spine -3.175154 -1.798812 0.471510
Head 16.860024 -4.457809 3.371934
LeftShoulder -18.174240 45.306721 9.272589
LeftArm 56.055945 -9.395034 -89.105453
LeftForeArm 3.474180 -0.000000 7.103669
LeftHand 4.789390 -0.000000 9.147603
LeftHandThumb1 -26.253704 0.000000 33.147579
RightShoulder -2.068855 -4.271992 -16.256667
RightArm 19.005407 3.764790 80.670600
RightForeArm 3.078143 -0.000000 16.965892
RightHand 7.440979 0.000000 -5.620056
RightHandThumb1 -24.326973 -0.000000 -32.862282
LeftUpLeg -10.568983 -7.553329 1.734730
LeftLeg 7.613750 -0.000000 -0.000000
LeftFoot -12.585887 12.728356 -15.742199
LeftToeBase -8.702640 -0.000000 0.000000
RightUpLeg -13.156107 -1.615225 3.342222
RightLeg 8.186646 -0.000000 -0.000000
RightFoot -4.262965 -1.643437 10.886274
RightToeBase -2.974024 -0.000000 0.000000
135
root 2.397637 32.998293 -4.559694 8.844789 -4.733473 -4.454101
Spine -2.984115 -1.500778 0.453659
Head 16.814190 -4.444530 3.481587
LeftShoulder -18.072662 45.337441 9.390609
LeftArm 55.847794 -8.856312 -89.187329
LeftForeArm 3.101090 -0.000000 7.090065
LeftHand 4.944557 -0.000000 9.223776
LeftHandThumb1 -26.253704 0.000000 33.147579
RightShoulder -1.956565 -4.311692 -16.091290
RightArm 19.170821 3.604221 81.001314
RightForeArm 3.229648 -0.000000 17.455704
RightHand 7.620514 -0.000000 -6.140195
RightHandThumb1 -24.326973 -0.000000 -32.862282
LeftUpLeg -10.613162 -6.974713 1.702149
LeftLeg 7.757761 -0.000000 -0.000000
LeftFoot -11.693453 12.908303 -14.805601
LeftToeBase -8.821224 -0.000000 0.000000
RightUpLeg -13.553044 -1.506079 3.387984
RightLeg 9.074864 -0.000000 -0.000000
RightFoot -4.426565 -1.368577 11.008205
RightToeBase -3.038133 -0.000000 0.000000
136
root 2.426333 32.992562 -4.569700 8.787329 -5.050502 -4.470792
Spine -2.786761 -1.304705 0.374217
Head 16.750519 -4.379710 3.585700
LeftShoulder -18.046589 45.350215 9.460224
LeftArm 55.663959 -8.348965 -89.336141
LeftForeArm 2.820749 -0.000000 7.086513
LeftHand 5.003537 -0.000000 9.172454
LeftHandThumb1 -26.253704 0.000000 33.147579
RightShoulder -1.832194 -4.276148 -15.958452
RightArm 19.290431 3.366130 81.319705
RightForeArm 3.234214 -0.000000 17.914472
RightHand 7.781646 -0.000000 -6.056026
RightHandThumb1 -24.326973 -0.000000 -32.862282
LeftUpLeg -10.698605 -6.435564 1.571538
LeftLeg 7.954065 -0.000000 -0.000000
LeftFoot -10.870291 13.040997 -13.896504
LeftToeBase -9.203260 -0.000000 0.000000
RightUpLeg -13.975279 -1.249180 3.300270
RightLeg 10.003054 -0.000000 -0.000000
RightFoot -4.664506 -1.266758 11.271269
RightToeBase -2.977471 -0.000000 0.000000
137
root 2.455964 32.986682 -4.581895 8.734281 -5.391888 -4.451551
Spine -2.593580 -1.102091 0.252859
Head 16.673915 -4.335016 3.707202
LeftShoulder -18.008500 45.431087 9.510800
LeftArm 55.578753 -7.928663 -89.550044
LeftForeArm 2.513913 -0.000000 7.025166
LeftHand 5.118306 0.000000 9.236545
LeftHandThumb1 -26.253704 0.000000 33.147579
RightShoulder -1.715703 -4.147438 -15.841268
RightArm 19.360585 3.104509 81.668566
RightForeArm 3.184503 -0.000000 18.380199
RightHand 7.800587 -0.000000 -6.366895
RightHandThumb1 -24.326973 -0.000000 -32.862282
LeftUpLeg -10.785767 -5.897607 1.411880
LeftLeg 8.171580 -0.000000 -0.000000
LeftFoot -10.439478 13.001223 -13.438357
LeftToeBase -9.382695 -0.000000 0.000000
RightUpLeg -14.453060 -1.027956 3.175548
RightLeg 10.998355 -0.000000 -0.000000
RightFoot -4.852012 -1.077529 11.571063
RightToeBase -3.045810 -0.000000 0.000000
138
root 2.484459 32.980786 -4.600569 8.667365 -5.829674 -4.400140
Spine -2.349082 -0.809645 0.051859
Head 16.517881 -4.247758 3.893749
LeftShoulder -17.956674 45.450252 9.623960
LeftArm 55.511104 -7.628475 -89.946229
LeftForeArm 2.427988 -0.000000 6.918588
LeftHand 5.326954 0.000000 9.228721
LeftHandThumb1 -26.253704 0.000000 33.147579
RightShoulder -1.631477 -4.041508 -15.685989
RightArm 19.543742 2.792895 81.998116
RightForeArm 3.230033 0.000000 18.787674
RightHand 8.026238 -0.000000 -6.745569
RightHandThumb1 -24.326973 -0.000000 -32.862282
LeftUpLeg -10.857597 -5.260949 1.206247
LeftLeg 8.392311 -0.000000 -0.000000
LeftFoot -9.993229 13.053214 -12.865503
LeftToeBase -10.364983 -0.000000 0.000000
RightUpLeg -14.977964 -0.778416 3.017431
RightLeg 12.057332 -0.000000 -0.000000
RightFoot -4.978860 -0.816870 11.837547
RightToeBase -3.250820 -0.000000 0.000000
139
root 2.514759 32.976643 -4.618922 8.631734 -6.183568 -4.330673
Spine -2.150338 -0.635373 -0.158399
Head 16.383898 -4.155613 4.096908
LeftShoulder -17.940651 45.439082 9.723638
LeftArm 55.398195 -7.330579 -90.317695
LeftForeArm 2.282350 -0.000000 6.842400
LeftHand 5.337524 -0.000000 9.175341
LeftHandThumb1 -26.253704 0.000000 33.147579
RightShoulder -1.525691 -3.901344 -15.516951
RightArm 19.714262 2.414603 82.285802
RightForeArm 3.057329 -0.000000 19.184745
RightHand 8.036370 -0.000000 -7.176854
RightHandThumb1 -24.326973 -0.000000 -32.862282
LeftUpLeg -10.958701 -4.823076 1.048152
LeftLeg 8.626353 -0.000000 -0.000000
LeftFoot -9.831069 12.841260 -12.852795
LeftToeBase -10.488762 -0.000000 0.000000
RightUpLeg -15.596418 -0.890271 2.905227
RightLeg 13.220088 -0.000000 -0.000000
RightFoot -4.990505 -0.348705 11.903104
RightToeBase -3.628701 -0.000000 0.000000
140
root 2.540789 32.971799 -4.643394 8.625940 -6.523036 -4.306805
Spine -1.973875 -0.445665 -0.317340
Head 16.246008 -4.079091 4.306896
LeftShoulder -17.868945 45.446561 9.851860
LeftArm 55.271690 -6.939802 -90.497588
LeftForeArm 1.882157 -0.000000 6.802669
LeftHand 5.374144 0.000000 9.172304
LeftHandThumb1 -26.253704 0.000000 33.147579
RightShoulder -1.413583 -3.744219 -15.388921
RightArm 19.864899 2.077450 82.617493
RightForeArm 2.971947 -0.000000 19.586937
RightHand 8.223154 -0.000000 -7.397499
RightHandThumb1 -24.326973 -0.000000 -32.862282
LeftUpLeg -10.980058 -4.742872 0.966967
LeftLeg 8.624252 -0.000000 -0.000000
LeftFoot -9.759087 13.130393 -12.883936
LeftToeBase -10.698167 -0.000000 0.000000
RightUpLeg -16.227271 -0.836752 2.822007
RightLeg 14.326344 -0.000000 -0.000000
RightFoot -4.941040 -0.048175 11.955033
RightToeBase -4.027613 -0.000000 0.000000
141
root 2.568841 32.966175 -4.663150 8.583704 -6.731049 -4.321246
Spine -1.746180 -0.403627 -0.383596
Head 16.073921 -3.966688 4.453537
LeftShoulder -17.840036 45.414474 9.936134
LeftArm 55.092380 -6.490199 -90.585495
LeftForeArm 1.436257 -0.000000 6.790374
LeftHand 5.473962 0.000000 9.135254
LeftHandThumb1 -26.253704 0.000000 33.147579
RightShoulder -1.322474 -3.569475 -15.287274
RightArm 20.045388 1.766680 82.953251
RightForeArm 3.076286 -0.000000 19.962570
RightHand 8.435000 0.000000 -7.596083
RightHandThumb1 -24.326973 -0.000000 -32.862282
LeftUpLeg -11.032185 -4.448124 0.865804
LeftLeg 8.759636 -0.000000 -0.000000
LeftFoot -9.669086 13.249145 -12.547565
LeftToeBase -10.656580 -0.000000 0.000000
RightUpLeg -16.772224 -0.684707 2.756529
RightLeg 15.371917 -0.000000 -0.000000
RightFoot -4.921931 0.022425 12.156433
RightToeBase -4.382800 -0.000000 0.000000
142
root 2.599045 32.960777 -4.682509 8.565066 -6.881649 -4.332951
Spine -1.546055 -0.401430 -0.439326
Head 15.898562 -3.870993 4.617300
LeftShoulder -17.801607 45.368968 10.018254
LeftArm 54.917556 -6.061442 -90.706129
LeftForeArm 1.056589 0.000000 6.808842
LeftHand 5.372568 -0.000000 9.235508
LeftHandThumb1 -26.253704 0.000000 33.147579
RightShoulder -1.235898 -3.379579 -15.210314
RightArm 20.189288 1.511999 83.326617
RightForeArm 3.084670 0.000000 20.341508
RightHand 8.607106 0.000000 -7.572143
RightHandThumb1 -24.326973 -0.000000 -32.862282
LeftUpLeg -11.132784 -4.121659 0.768163
LeftLeg 8.928233 -0.000000 -0.000000
LeftFoot -9.557693 13.226254 -12.274788
LeftToeBase -10.573870 -0.000000 0.000000
RightUpLeg -17.376959 -0.792872 2.734581
RightLeg 16.482335 -0.000000 -0.000000
RightFoot -4.792201 0.240968 12.167548
RightToeBase -5.001780 -0.000000 0.000000
143
root 2.630726 32.955480 -4.703779 8.551875 -7.005459 -4.350742
Spine -1.351717 -0.440072 -0.460765
Head 15.741320 -3.765540 4.717215
LeftShoulder -17.750358 45.340905 10.093012
LeftArm 54.720492 -5.611116 -90.745782
LeftForeArm 0.632997 -0.000000 6.864763
LeftHand 5.406133 -0.000000 9.250881
LeftHandThumb1 -26.253704 0.000000 33.147579
RightShoulder -1.118422 -3.150529 -15.170077
RightArm 20.359736 1.485319 83.817591
RightForeArm 2.978302 -0.000000 20.621135
RightHand 8.967861 -0.000000 -7.378894
RightHandThumb1 -24.326973 -0.000000 -32.862282
LeftUpLeg -11.244301 -3.842419 0.685037
LeftLeg 9.097764 -0.000000 -0.000000
LeftFoot -9.479267 13.169700 -12.065491
LeftToeBase -10.512793 -0.000000 0.000000
RightUpLeg -17.994900 -0.966673 2.733514
RightLeg 17.593060 -0.000000 -0.000000
RightFoot -4.617620 0.450207 12.131739
RightToeBase -5.669540 -0.000000 0.000000
144
root 2.661429 32.949430 -4.724923 8.533770 -7.119133 -4.424259
Spine -1.145390 -0.481611 -0.417794
Head 15.585076 -3.670686 4.809651
LeftShoulder -17.695358 45.330910 10.167632
LeftArm 54.541923 -5.123935 -90.757512
LeftForeArm 0.133271 -0.000000 6.946358
LeftHand 5.378355 -0.000000 9.325739
LeftHandThumb1 -26.253704 0.000000 33.147579
RightShoulder -0.982369 -2.978127 -15.117927
RightArm 20.473365 1.134752 84.120192
RightForeArm 3.238337 0.000000 21.167171
RightHand 9.060319 -0.000000 -7.484459
RightHandThumb1 -24.326973 -0.000000 -32.862282
LeftUpLeg -11.371606 -3.409755 0.639455
LeftLeg 9.327891 -0.000000 -0.000000
LeftFoot -9.434806 12.992442 -11.824139
LeftToeBase -10.529880 -0.000000 0.000000
RightUpLeg -18.589222 -1.079154 2.779464
RightLeg 18.685641 -0.000000 -0.000000
RightFoot -4.414639 0.617887 12.119431
RightToeBase -6.357602 -0.000000 0.000000
145
root 2.693610 32.946346 -4.749165 8.543541 -7.231650 -4.452816
Spine -0.966659 -0.514319 -0.432745
Head 15.403558 -3.580236 4.945928
LeftShoulder -17.638050 45.306346 10.235733
LeftArm 54.435300 -4.775420 -90.915307
LeftForeArm -0.071239 -0.000000 6.939611
LeftHand 5.446051 -0.000000 9.352139
LeftHandThumb1 -26.253704 0.000000 33.147579
RightShoulder -0.854311 -2.811677 -15.055696
RightArm 20.640281 0.884135 84.470610
RightForeArm 3.331666 0.000000 21.607831
RightHand 9.132230 0.000000 -7.480657
RightHandThumb1 -24.326973 -0.000000 -32.862282
LeftUpLeg -11.417991 -3.437038 0.601832
LeftLeg 9.312254 -0.000000 -0.000000
LeftFoot -9.390685 13.256311 -11.759453
LeftToeBase -10.396182 -0.000000 0.000000
RightUpLeg -19.229695 -1.244096 2.790956
RightLeg 19.780956 -0.000000 -0.000000
RightFoot -4.171333 0.805730 12.113732
RightToeBase -7.075690 -0.000000 0.000000
146
root 2.736528 32.946055 -4.775728 8.554953 -7.351343 -4.399687
Spine -0.794992 -0.534991 -0.520811
Head 15.242453 -3.544483 5.057986
LeftShoulder -17.513605 45.299304 10.324309
LeftArm 54.358877 -4.479859 -91.109453
LeftForeArm -0.260922 -0.000000 6.954246
LeftHand 5.435446 -0.000000 9.324556
LeftHandThumb1 -26.253704 0.000000 33.147579
RightShoulder -0.713301 -2.629504 -14.977434
RightArm 20.804509 0.676190 84.810419
RightForeArm 3.530867 -0.000000 22.060511
RightHand 9.091648 0.000000 -7.630217
RightHandThumb1 -24.326973 -0.000000 -32.862282
LeftUpLeg -11.281614 -4.124672 0.562026
LeftLeg 8.872406 -0.000000 -0.000000
LeftFoot -9.251716 14.095539 -11.961240
LeftToeBase -10.383553 -0.000000 0.000000
RightUpLeg -19.906938 -1.456782 2.701927
RightLeg 20.897412 -0.000000 -0.000000
RightFoot -3.878778 1.076218 12.142043
RightToeBase -7.745361 -0.000000 0.000000
